<svg xmlns="http://www.w3.org/2000/svg" xmlns:xlink="http://www.w3.org/1999/xlink" viewBox="0 0 597.05 385.96"><defs><style>.cls-1,.cls-10,.cls-4{fill:none;}.cls-2{fill:#fff;}.cls-3,.cls-9{fill:#231815;}.cls-4{stroke:#060302;stroke-width:7px;}.cls-10,.cls-4,.cls-9{stroke-miterlimit:10;}.cls-5{clip-path:url(#clip-path);}.cls-6{fill:#f7f8f8;}.cls-7{fill:#feffff;}.cls-8{fill:#fffefe;}.cls-9{stroke:#231815;stroke-width:0.25px;}.cls-10{stroke:#060404;}</style><clipPath id="clip-path"><rect class="cls-1" x="112.69" y="131.84" width="325.05" height="243.59"/></clipPath></defs><title>資產 1</title><g id="圖層_2" data-name="圖層 2"><g id="圖層_3" data-name="圖層 3"><path class="cls-2" d="M299.13,374.38a92.27,92.27,0,0,1-76.25-.5,223.63,223.63,0,0,1-6.17-36c-.59-6.76-.31-7.32-1.67-30.5-1-17.89-1.53-23.17-3.83-30.33-2.73-8.51-4.17-7.69-8.33-18.5a123.53,123.53,0,0,1-7.5-30.67c-1-8.68-2-18,.5-29.33a73.56,73.56,0,0,1,17-32.83c2.07-1.44,5.23-3.1,8.67-2.5,4.22.74,6,4.4,8.83,3.67,1.87-.48,1.6-2.15,4.67-5.17,1.5-1.48,4.14-4.08,8-4.67a13.15,13.15,0,0,1,8.17,1.67c3,1.76,3.26,3.64,5.17,3.67s2.31-1.83,5.83-4A14.54,14.54,0,0,1,268,156a14,14,0,0,1,9.17,2.33c2.65,1.92,3,3.9,4.83,3.83,1,0,1.32-.68,4-2.33,0,0,1.31-.8,3.33-1.83,1.25-.63,4.54-1.62,12.67,1.89a14.9,14.9,0,0,1,6.5,6.11c1.91,3.6,1.37,6.91,3.67,8,1.07.51,1.91.13,4.17-.33,1.46-.3,7.16-1.46,10.17-.67,4.05,1.07,5.89,6.42,7.83,12.33,1.31,4,2.4,8.71,3.17,20,.72,10.61,1.08,15.92.17,19.5-.59,2.31-2.08,6.9-13,18.67-7.19,7.75-12.43,12.09-27.5,26.67-5.22,5-8.81,8.61-10.88,14.64-1.53,4.48-1.39,7.9-1.29,15.2.27,19.29-.4,18.59,0,24.5C286.44,345.22,295.45,366.31,299.13,374.38Z"/><path class="cls-3" d="M212.38,95.88c-13.82-20.36-13-44.7-4-65,1.76-4,4.31-7.55,7.1-12.35L229,27.1c4.52-7.78,8.45-15.28,13.14-22.21,1.6-2.36,5.12-3.3,7.76-4.89,0,3.37,1,7.28-.31,10-3.52,7.38-8,14.25-12.41,21.82l22.4,14.11c4.41-7.6,8.34-15.14,13.07-22.07,1.6-2.34,5.26-3.15,8-4.66.07,3.11,1.21,6.78,0,9.23-3.71,7.61-8.3,14.74-13.08,23l16.08,10.13c-8.85,25.62-38.61,37.32-67.47,37"/><path class="cls-4" d="M222,83.79S160.6,186.73,151.29,222.46c-20.17,70.51,12,158.67,110,160,113.77-.14,126.28-112.7,109.33-162.67-15.78-46.52-80-152-80-152"/><g class="cls-5"><g class="cls-5"><path class="cls-6" d="M338,203.88c-.37-3.41-.74-6.89-1.12-10.38,9.67-.77,18.14-4.57,27.07-7.12.37,2.63.74,5,1,7.43h.89c1.26-2.25.22-4.65.22-7.2a51.37,51.37,0,0,0,3.79,4.18c9.59,9,21.12,14,35,13.4a33.86,33.86,0,0,0,24.24-11.31c2.23-2.4,3.64-5.5,5.35-8.13v10.84c0,.23-.3.46-.45.7-9.74,10.15-21.71,16.27-37,15.72a48.21,48.21,0,0,1-26.25-9c-3.87-2.63-7.58-3.1-12-2.48-6.84,1.09-13.68,2.17-20.89,3.33"/><path class="cls-6" d="M318.49,171.74c-1.86.46-3.72,1-5.65,1.55-.6-1.63-1.19-3.33-1.93-5.34,4.24-.85,8.33-1.86,12.57-2.48,10.86-1.55,21.79-2.87,32.72-4.49a72.5,72.5,0,0,0,8.92-2.4,4.38,4.38,0,0,0,3.2-3.18c3.2-9,9.15-15.57,19.18-18.51,8.1-2.48,16-1.63,23.79.85a13.07,13.07,0,0,1,3.2,1.78c3.49,2.48,5.35,6,7.29,9.6-3.87.31-7.58.31-11.23.85-5.43.77-10.93,1.7-16.28,2.87a4.45,4.45,0,0,0-2.46,2.4c-2.45,4.88-4.83,9.84-7.06,14.87-.22.54.37,1.78,1,2.25,3.2,2.48,6.62,4.72,9.82,7.2a8,8,0,0,0,6.4,1.63c9.67-1.32,19.33-2.56,29-3.79a7.56,7.56,0,0,1,1.34,0,22.93,22.93,0,0,1-5.87,13.55c-7.66,8.6-21.19,12-33.76,8.52-8.25-2.25-14.95-6.66-20.89-12.16-1.71-1.55-3.35-3.56-5.43-4.11-1.86-.46-4.24.77-6.39,1.39-7.73,2-15.39,4.1-23.2,6.27-.6-2.94-1.19-5.89-1.86-8.75a19.17,19.17,0,0,0-.89-2.94c-2.53-6.12-8.48-9-15.47-7.44"/><path class="cls-6" d="M215.95,216.58a12,12,0,0,1,6.39,0c4.83,1.39,9.67.77,12.71-4.26.3-.54.74-1,1.26-1.78.37,2.09.67,3.8,1,5.5-10.41.77-19.56,5.34-29.52,7.43-4.09.78-8.1,1.78-12.12,2.71a2.78,2.78,0,0,1-1.11.15c-3.64-.77-4.09,1.63-4.68,4q-.56,2.32-1.34,4.65c-4.16,12.7-16.43,20.83-30.86,20.52A30.73,30.73,0,0,1,139.73,249a51.48,51.48,0,0,0,18.44,2.94c7.36-.08,13.38-2.4,18.22-7.59,5-5.34,9.15-10.92,10-18.2.07-.46.82-.85,1.41-1.39-.3-.62-.67-1.47-1.19-2.4,2.6-.39,5.06-.7,7.51-1.24,7.29-1.39,14.65-2.79,21.86-4.49"/><path class="cls-7" d="M154.46,214.26a14.85,14.85,0,0,0-10.19-.54c-5.58,1.63-11.3,3.18-17,4.65a4.85,4.85,0,0,1-2.6-.23c-2.6-1.24-5.13-2.71-7.66-4,.07-.23.07-.46.15-.7,10.19-2,19.41-7.12,30.19-7.82a25.29,25.29,0,0,0,.3,3,12,12,0,0,0,.89,2c.22,0,.37-.08.6-.08V206c3.49,1,6.54,1.86,9.52,2.86.37.08.67.93.67,1.47,0,1.78-.15,3.48-.3,5.58-1.64-.62-3.2-1.08-4.61-1.7"/><path class="cls-6" d="M213.79,183.59c1.64,4.49,3.2,9,4.76,13.48,1.12,3.25.6,6.43-.3,9.68-.45,1.94-.89,3.87-1.41,6-8.7,2.32-17.7,4.65-26.62,7-1.71.46-3.49.46-5.13,1a2.84,2.84,0,0,0-1.49,1.86c-1.49,9.45-5.28,17.74-14.13,23.39-5.8,3.72-12.27,3.49-18.89,2.71-7.81-.93-14.57-3.49-19.41-9.45a8.71,8.71,0,0,0-.82-1.16c.45-.23.82-.46,1.19-.62,8.33-3.17,16.58-6.43,24.91-9.6a8.24,8.24,0,0,0,5.13-5.27c1.64-4.88,1.26-9.84,1.12-14.71a2.72,2.72,0,0,0-1.49-1.55c-3.79-1.24-7.58-2.48-11.38-3.41a20.56,20.56,0,0,0-11.82.85c-7.21,2.63-14.5,5.11-21.94,7.74a6,6,0,0,1,.3-1.24c1.49-3.72,2.75-7.59,4.53-11.23,4.24-8.29,10.71-14.56,21.27-15.72a32.14,32.14,0,0,1,11.15,1c7,1.86,13.46,4.72,18.51,9.84a3,3,0,0,0,2.38.15c5.58-1.47,11.08-3.18,16.58-4.65,6.17-1.63,12.42-3.1,18.66-4.73,1.41-.39,2.75-.85,4.31-1.32"/><path class="cls-3" d="M437.69,193.19c.52,4.88-2.61,7.67-6,10.3-16.29,13.09-37.4,15.34-55.77,6.2-3-1.48-5.5-3.8-8.33-5.66a3.7,3.7,0,0,0-2.08-.85c-8.48.54-16.95,1.24-25.43,1.94-.52,0-1,.15-1.79.23l-.29-1.47c7.21-1.16,14.05-2.25,20.89-3.33,4.39-.62,8.11-.16,12,2.48a48.27,48.27,0,0,0,26.25,9c15.24.54,27.22-5.58,37-15.72.15-.24.44-.47.44-.7V184.75l2.47-.07C437.32,187.5,437.35,190.36,437.69,193.19Z"/><path class="cls-3" d="M437,184.68l-2.47.07c-1.71,2.63-3.12,5.73-5.35,8.13A33.88,33.88,0,0,1,405,204.19c-13.91.62-25.43-4.42-35-13.4a52.7,52.7,0,0,1-3.8-4.18c0,2.55,1,4.95-.22,7.2H365c-.3-2.4-.67-4.8-1-7.44-8.93,2.56-17.4,6.35-27.07,7.13.37,3.48.74,7,1.12,10.38l.29,1.47c.45,2.55.82,5,1.19,7.51,1,5.73,1.42,11.54-2,16.81-1.23,1.89-2.59,3.73-4,5.53l-2.42-.53c5.25-6.25,6.81-13.47,5.55-21.73s-2-16.81-3.19-25.17a29.82,29.82,0,0,0-2.68-8.75c-2.16-4.57-6.17-6.12-11.45-5-2.6.47-5.13,1.16-8,1.86a7.23,7.23,0,0,1-1.93,7.9,11.72,11.72,0,0,1-9.37,2.94,54.71,54.71,0,0,1-8.7-1.47c-4.85-1.26-6.23-3.93-4.05-7.53l1.28.49a3.69,3.69,0,0,0-.58,1.39c-.29,1.78.75,3.25,3.2,3.79a41.81,41.81,0,0,0,9.82,1.24,13.4,13.4,0,0,0,6.24-2.09,4.42,4.42,0,0,0,2.08-5.19,1.88,1.88,0,0,0-1.41-1.08l-3.93-.05v-1.3c1.92,0,3.91-.22,6.23-.28-2-6.35-5-11.23-10.41-14.48a9.74,9.74,0,0,0-7.66-1.16,45.92,45.92,0,0,0-5.88,1.7,11.47,11.47,0,0,0-2.42,1.05l-1-1.84c1-.54,2.06-1.09,3.11-1.61,7.58-3.72,14.2-2.71,20,3.1a19.1,19.1,0,0,1,3,3.56c.75,1.25,1.52,1.72,2.87,1.45l.28,1.32-1.21.25c.74,2,1.33,3.72,1.93,5.34,1.93-.54,3.79-1.08,5.65-1.55,7-1.54,12.94,1.32,15.47,7.44a19.23,19.23,0,0,1,.89,2.94c.67,2.87,1.26,5.81,1.86,8.76,7.81-2.17,15.46-4.26,23.2-6.28,2.15-.62,4.53-1.86,6.39-1.39,2.08.54,3.72,2.55,5.43,4.1,5.95,5.5,12.64,9.92,20.9,12.16,12.56,3.49,26.1.08,33.75-8.52a22.92,22.92,0,0,0,5.88-13.55,7.37,7.37,0,0,0-1.34,0c-9.67,1.24-19.33,2.48-29,3.79a8,8,0,0,1-6.4-1.62c-3.19-2.48-6.61-4.73-9.81-7.21a2.67,2.67,0,0,1-1-2.24c2.23-5,4.61-10,7.07-14.87a4.39,4.39,0,0,1,2.45-2.4c5.35-1.17,10.86-2.09,16.29-2.87,3.19-.47,6.44-.53,9.79-.75l.17,2.45c-6,.93-11.75,1.79-17.33,2.79a56.55,56.55,0,0,0-6.17,1.63c-.44.23-1,1.08-1,1.47.44,2.87,1.11,5.73,1.71,8.75,4.38-.62,8.77-1.47,13.16-1.78q.76-.06,1.47-.15l.35,2.19c-4.92.79-9.85,1.61-14.84,2.38-1.63.23-4.75,3-4.68,4.49a2.63,2.63,0,0,0,.67.93c3,3.25,6.69,4.18,11.15,3.56,9.22-1.39,18.44-2.63,27.66-3.95,2.61-.31,3.2.31,2.76,2.63a3.59,3.59,0,0,0,.14,1.55A25.74,25.74,0,0,1,437,184.68Zm-42.1-17.28c.22-.23.52-.55.52-.78-.45-2.48-1-4.95-1.41-7.43-.23,0-.37-.08-.52-.08-1.94,3.72-3.87,7.44-5.88,11.31,1.12.62,2,1.16,2.75,1.62C392,170.42,393.52,168.87,394.93,167.4Z"/><path class="cls-8" d="M430.92,177.39a7.37,7.37,0,0,1,1.34,0,22.92,22.92,0,0,1-5.88,13.55c-7.65,8.6-21.19,12-33.75,8.52-8.26-2.24-15-6.66-20.9-12.16-1.71-1.55-3.35-3.56-5.43-4.1-1.86-.47-4.24.77-6.39,1.39-7.74,2-15.39,4.11-23.2,6.28-.6-2.95-1.19-5.89-1.86-8.76a19.23,19.23,0,0,0-.89-2.94c-2.53-6.12-8.48-9-15.47-7.44-1.86.47-3.72,1-5.65,1.55-.6-1.62-1.19-3.33-1.93-5.34l1.21-.25c3.8-.79,7.52-1.67,11.35-2.23,10.86-1.55,21.79-2.86,32.72-4.49a73.43,73.43,0,0,0,8.92-2.4,4.38,4.38,0,0,0,3.2-3.18c3.2-9,9.15-15.57,19.18-18.51,8.11-2.48,16-1.63,23.8.85a13.6,13.6,0,0,1,3.2,1.78c3.49,2.48,5.35,6,7.28,9.61l-1.43.1c-3.35.22-6.6.28-9.79.75-5.43.78-10.94,1.7-16.29,2.87a4.39,4.39,0,0,0-2.45,2.4c-2.46,4.88-4.84,9.83-7.07,14.87a2.67,2.67,0,0,0,1,2.24c3.2,2.48,6.62,4.73,9.81,7.21a8,8,0,0,0,6.4,1.62C411.59,179.87,421.25,178.63,430.92,177.39Z"/><path class="cls-3" d="M425.42,148.81c.22.46-.75,1.39-1.19,2-.6.78-1.56,1.4-1.79,2.25-.82,2.71-1.41,5.5-2,8.29-.45,2.55-1.71,4.26-4.62,4.72l-3.08.49-.35-2.19c3.28-.48,5.47-1.76,5.67-5.42a23.64,23.64,0,0,1,1.26-3.72c.37-1.09.74-2.25,1.19-3.57l-.17-2.45,1.43-.1c-1.93-3.64-3.79-7.13-7.28-9.61a13.6,13.6,0,0,0-3.2-1.78c-7.81-2.48-15.69-3.33-23.8-.85-10,2.94-16,9.53-19.18,18.51a4.38,4.38,0,0,1-3.2,3.18,73.43,73.43,0,0,1-8.92,2.4c-10.93,1.63-21.86,2.94-32.72,4.49-3.83.56-7.55,1.44-11.35,2.23l-.28-1.32a5.74,5.74,0,0,0,.78-.21c8-2.71,16.43-3.56,24.76-4.88,6.69-1,13.31-2.63,19.93-4,2.45-.46,4.9-1,7.28-1.7.6-.16,1.42-.78,1.42-1.32.89-9,7-14.56,15.09-18.51a39,39,0,0,1,32.2-.78C419.84,137.58,423,143,425.42,148.81Z"/><path class="cls-3" d="M331.08,234.67l2.42.53c-1.44,1.79-3,3.53-4.52,5.23-4.47,4.81-9.23,9.38-13.91,14-4.91,4.95-10.11,9.76-14.87,14.79-4.31,4.72-8.26,9.76-12.34,14.72a3.3,3.3,0,0,0-.75,2l-.09,1.36-1.92-.12c-2.3.85-4.38,1.78-6.61,2.4-.67.15-1.64-.39-2.46-.7.6-.54,1-1.32,1.79-1.55,4.09-1.39,6.69-4.26,9.29-7.28,6.17-7.12,12.12-14.33,18.74-21.14,7-7.2,14.5-14.1,22-20.91A33.09,33.09,0,0,0,331.08,234.67Z"/><path class="cls-3" d="M320.57,197.29a8.9,8.9,0,0,1,2.53-.23c-.3.7-.3,1.63-.82,2.09-1.34,1.24-2.82,2.33-4.61,3.8,1.71.08,3.13.08,4.61.23a3.92,3.92,0,0,1,1.34.77c-.37.39-.74,1.17-1.19,1.17-1.71,0-3.72.31-5.2-.39-2.53-1.16-4.84-.7-7.29-.31-1,5,.3,7.74,5,10.46.52.31.82,1.08,1.19,1.54a5.45,5.45,0,0,1-2.23.08,33.25,33.25,0,0,1-3.79-1.86c-.6.85-1.19,1.71-1.71,2.56l-.89-.23c.14-.86.29-1.78.37-2.64a22.38,22.38,0,0,0,.07-3.17c-.22-2.25-.59-4.49-.89-7-.22,0-1.12-.16-2-.23-1.34,5.57-3,10.84-8.77,14.17a12.37,12.37,0,0,1,2,.54,18.89,18.89,0,0,1,1.63,1.55A4.75,4.75,0,0,1,298,221c-2.46,0-4.91-.15-7.36-.31-15.1-.93-26.4,5.12-35,16a4.86,4.86,0,0,1-2.08,1.55c1.64-6,6-10.23,10.78-13.87-2.38-1-4.83-2-7.43-3.17-7.47,5.07-12,5.22-16.89-.06l1.25-.57c.29.29.61.59.91.94a25.66,25.66,0,0,1,.23-3,7.15,7.15,0,0,1,5.8-6.66c5.43-1.08,7.21-1.39,9,4H258c.3-4.49,1.12-9,.9-13.48-.53-10.76-1.57-21.45-2.53-32.14a20.56,20.56,0,0,0-1.34-6,9.23,9.23,0,0,0-6-5.75l.64-1.9a20.23,20.23,0,0,1,6.66,4.39c6.62-8.21,19.71-8.59,25.58-.69l1.06-.56,1,1.84c-.88.62-.72,1.37-.33,3.44A26.85,26.85,0,0,1,284,170a43.86,43.86,0,0,1-.22,4.57c3.12-.39,6.17-1.08,9.14-1,3.27.08,6.47.93,9.67,1.24.48,0,.95.05,1.43.05v1.3c-2.94,0-5.88,0-8.86,0v-.54h-2.45a5.69,5.69,0,0,0-4.11,2.56l-1.28-.49a11.62,11.62,0,0,1,.78-1.14c-2.23.15-3.65.77-4.09,2.55a11.59,11.59,0,0,0-.37,5.73c1.93,7,14.65,18,26.32,16.35A29.5,29.5,0,0,0,320.57,197.29Zm-19,7.83c.15-.62.29-1.32.52-2-8.41-3-15.32-7.51-19.93-14.71-4,8.83-2.6,21.22,3.12,25.71-.3-1-.52-1.7-.74-2.48-1-3.41.3-5.73,4-6.74,4.39-1.24,8.78-1.85,12.42,2.4C301.24,206.28,301.39,205.66,301.54,205.12Zm-2.23,6.27a1.66,1.66,0,0,0,0-1c-.52-2.86-2.31-4.18-5.8-4.18h-.9c-5.57.39-6.76,1.78-6.09,6.74.07.46-.08,1,.22,1.39.37.7.82,1.63,1.49,1.94C292.76,218.05,297.74,214.64,299.31,211.39ZM285,217.28c-3.94-2.71-5.58-6.43-6.47-10.46-1.41,4.34-2.83,8.52-4.16,12.62C277.52,218.83,281.16,218.05,285,217.28Zm-4.24-49.81c.22-6.5-4.16-10.22-11.23-10a16.71,16.71,0,0,0-10.26,3.88c-1.49,1.08-2.45,2.16-1.56,4.1a10.46,10.46,0,0,1,.74,4c1,11,2.16,22.07,3,33.15.37,5,.15,9.91-1.94,14.56-.59,1.24,0,1.7,1.49,2,.22-1.24.45-2.32.6-3.4.22-1.24.22-2.48.52-3.65.52-2.09,1.56-3.87,4.09-4.41a6.52,6.52,0,0,1,5.95,2c.52.55,1,1.09,1.56,1.71.22-.31.37-.47.37-.7A186,186,0,0,0,280.79,167.47ZM269.93,219.6c2.76-2.48,2.68-4.8.82-7.67A5.53,5.53,0,0,0,267,210c-1.78-.16-2.53,1.39-2.83,2.86-.59,2.48-1.19,4.88-1.78,7.51C265.25,222,267.63,221.69,269.93,219.6ZM253,221c1-.46,2.31-1.47,2.31-2.24a19.81,19.81,0,0,0-1.57-4.8c-.07-.16-.44-.31-.74-.39-2.68-1-7.14,1-8,3.56a15.14,15.14,0,0,0-.59,3.18c-.37,2.48-.22,2.63,2.53,3C249,222.54,251,221.92,253,221Z"/><path class="cls-2" d="M299.83,160.12c5.42,3.25,8.4,8.13,10.41,14.48-2.32.06-4.31.28-6.23.28-.48,0-1,0-1.43-.05-3.2-.31-6.4-1.16-9.67-1.24-3-.07-6,.62-9.14,1A43.86,43.86,0,0,0,284,170a26.85,26.85,0,0,0-.45-4.88c-.39-2.07-.55-2.82.33-3.44a11.47,11.47,0,0,1,2.42-1.05,45.92,45.92,0,0,1,5.88-1.7A9.74,9.74,0,0,1,299.83,160.12Z"/><path class="cls-3" d="M301.09,375.43h-4.46c-3.87-12.93-8.48-25.71-11.45-38.72-3.57-15.57-2.6-31.45-.45-47.17.15-.85.22-1.7.37-2.4l1.92.12c-1,15.5-2,31.08,1.28,46.43,2.08,9.68,5.35,19.13,8.25,28.58C297.89,366.76,299.53,371.1,301.09,375.43Z"/><path class="cls-2" d="M299.31,210.38a1.66,1.66,0,0,1,0,1c-1.57,3.25-6.55,6.66-11.08,4.88-.67-.31-1.12-1.24-1.49-1.94-.3-.38-.15-.93-.22-1.39-.67-5,.52-6.35,6.09-6.74h.9C297,206.2,298.79,207.52,299.31,210.38Z"/><path class="cls-8" d="M269.56,157.48c7.07-.23,11.45,3.49,11.23,10a186,186,0,0,1-6.69,43.3c0,.23-.15.39-.37.7-.52-.62-1-1.16-1.56-1.71a6.52,6.52,0,0,0-5.95-2c-2.53.54-3.57,2.32-4.09,4.41-.3,1.17-.3,2.41-.52,3.65-.15,1.08-.38,2.16-.6,3.4-1.49-.31-2.08-.77-1.49-2,2.09-4.65,2.31-9.6,1.94-14.56-.82-11.08-1.94-22.15-3-33.15a10.46,10.46,0,0,0-.74-4c-.89-1.94.07-3,1.56-4.1A16.71,16.71,0,0,1,269.56,157.48Z"/><path class="cls-2" d="M270.75,211.93c1.86,2.87,1.94,5.19-.82,7.67-2.3,2.09-4.68,2.4-7.58.77.59-2.63,1.19-5,1.78-7.51.3-1.47,1-3,2.83-2.86A5.53,5.53,0,0,1,270.75,211.93Z"/><path class="cls-8" d="M258.86,202.48c.22,4.5-.6,9-.9,13.48h-.81c-1.79-5.42-3.57-5.11-9-4a7.15,7.15,0,0,0-5.8,6.66,25.66,25.66,0,0,0-.23,3c-.3-.35-.62-.65-.91-.94a3.57,3.57,0,0,1-1-1.39,47.15,47.15,0,0,1-2-7.05c-.05-.25-.1-.5-.14-.76a13.5,13.5,0,0,1,.66-6.9,23.38,23.38,0,0,0-.29-17.51c-2.46-6.19-4.32-12.62-6.4-19a1.77,1.77,0,0,1,.3-1.47,20,20,0,0,1,10.41-7.83,10.69,10.69,0,0,1,6.23-.09,9.23,9.23,0,0,1,6,5.75,20.56,20.56,0,0,1,1.34,6C257.29,181,258.33,191.72,258.86,202.48Z"/><path class="cls-2" d="M255.29,218.75c0,.77-1.34,1.78-2.31,2.24-1.93.93-4,1.55-6,2.33-2.75-.39-2.9-.54-2.53-3a15.14,15.14,0,0,1,.59-3.18c.82-2.55,5.28-4.57,8-3.56.3.08.67.23.74.39A19.81,19.81,0,0,1,255.29,218.75Z"/><path class="cls-3" d="M249.59,156.73l-.64,1.9a10.69,10.69,0,0,0-6.23.09,20,20,0,0,0-10.41,7.83A1.77,1.77,0,0,0,232,168c2.08,6.35,3.94,12.78,6.4,19a23.38,23.38,0,0,1,.29,17.51,13.5,13.5,0,0,0-.66,6.9l-1.52.27c-.06-.36-.13-.74-.2-1.13-.52.77-1,1.24-1.26,1.78-3.05,5-7.88,5.65-12.71,4.26a11.89,11.89,0,0,0-6.4,0c-7.21,1.7-14.57,3.1-21.86,4.49-2.24.49-4.48.79-6.83,1.14l-.28-2a30.11,30.11,0,0,0,3.24-.57c8.93-2.33,17.92-4.65,26.62-7,.52-2.09,1-4,1.42-6,.89-3.25,1.41-6.43.29-9.68-1.56-4.49-3.12-9-4.76-13.48l-.58.18-.44-1.8.65-.16a33.19,33.19,0,0,1,0-3.87c.08-.54.82-1,1.27-1.47.44.46,1.19.85,1.33,1.32.3,1.16.23,2.47.6,3.64,1.26,4.18,2.75,8.36,4.09,12.62s1.71,8.75-.07,13.09a11.52,11.52,0,0,0-.75,3.18,3,3,0,0,0,2.46,3.48c.22-3.25.44-6.58,3.49-8.52a8.66,8.66,0,0,1,9.52-.08,17.92,17.92,0,0,0,.59-16.26,67.28,67.28,0,0,1-5.13-16.34,10.62,10.62,0,0,0-2.08-4.81,9,9,0,0,0-4.31-2.63,13.18,13.18,0,0,0-12.87,3.72,41.93,41.93,0,0,0-7.48,10.7l-1.7-.92c1.35-2.6,2.7-5.22,4.28-7.69a21.87,21.87,0,0,1,5.87-6c5.13-3.88,11.45-3.72,17.62.07a13,13,0,0,1,1.94-2.09c2.6-1.93,5-4.26,7.95-5.65A12,12,0,0,1,249.59,156.73Zm-14.9,49.86c-6-2.87-10,.15-10.11,7.67C229.56,215.34,233,212.71,234.69,206.59Z"/><path class="cls-3" d="M241.21,220.6l-1.25.57c-.56-.6-1.12-1.28-1.7-2-13.83,3.09-27.59,6.27-41.87,9.44l0,.19-1.82.32c0-.25-.1-.51-.14-.74a1.51,1.51,0,0,0-.59-.08l.24-2,.43.08a2.68,2.68,0,0,0,1.11-.16c4-.93,8-1.93,12.12-2.71,10-2.09,19.11-6.66,29.52-7.43-.24-1.39-.48-2.78-.77-4.37l1.52-.27c0,.26.09.51.14.76a47.15,47.15,0,0,0,2,7.05A3.57,3.57,0,0,0,241.21,220.6Z"/><path class="cls-8" d="M235.95,188.93a17.92,17.92,0,0,1-.59,16.26,8.66,8.66,0,0,0-9.52.08c-3.05,1.94-3.27,5.27-3.49,8.52a3,3,0,0,1-2.46-3.48,11.52,11.52,0,0,1,.75-3.18c1.78-4.34,1.48-8.75.07-13.09s-2.83-8.44-4.09-12.62c-.37-1.17-.3-2.48-.6-3.64-.14-.47-.89-.86-1.33-1.32-.45.46-1.19.93-1.27,1.47a33.19,33.19,0,0,0,0,3.87l-.65.16c-3.64.87-7.26,1.68-11.39,2.63.94-1.71,1.82-3.39,2.7-5a41.93,41.93,0,0,1,7.48-10.7,13.18,13.18,0,0,1,12.87-3.72,9,9,0,0,1,4.31,2.63,10.62,10.62,0,0,1,2.08,4.81A67.28,67.28,0,0,0,235.95,188.93Z"/><path class="cls-3" d="M224.13,375.43H221c-2.83-16.57-6.17-32.91-6.55-49.88-.27-15.1-2.36-30.13-3.9-45.23l2.27-.23c.59,3.56,1.19,6.58,1.71,9.68a274.42,274.42,0,0,1,3.94,46.71c0,7.51,1.78,14.79,3.2,22.07C222.79,364.13,223.31,369.78,224.13,375.43Z"/><path class="cls-3" d="M218.48,283.42a1.85,1.85,0,0,1-.45,1.39,1.74,1.74,0,0,1-1.48-.31c-1.19-1.23-2.31-2.63-3.72-4.41l-2.27.23c-.12-1.08-.23-2.17-.33-3.25a4.71,4.71,0,0,0-.9-2.09,99.13,99.13,0,0,1-14.65-45.16,4.79,4.79,0,0,0-.08-.73l1.82-.32c.59,3.2,1.1,6.55,1.76,9.88,3,15.49,10.26,29.36,19,42.68A12.15,12.15,0,0,1,218.48,283.42Z"/><path class="cls-3" d="M212.77,182l.44,1.8c-1.32.4-2.5.8-3.73,1.14-6.24,1.63-12.49,3.1-18.66,4.73-5.51,1.47-11,3.17-16.58,4.64a3,3,0,0,1-2.38-.15c-5.06-5.11-11.53-8-18.52-9.84a32.27,32.27,0,0,0-11.15-1c-10.56,1.17-17,7.44-21.27,15.73-1.78,3.64-3,7.51-4.53,11.23a5.63,5.63,0,0,0-.3,1.24l.38-.13.73,2.06c-.07.24-.07.47-.15.7,2.53,1.32,5.06,2.79,7.66,4a4.84,4.84,0,0,0,2.61.23l.17,0,.46,1.75a1.21,1.21,0,0,0-.63.23c-1.64,2.09-3.28.93-4.76,0-3.13-2-6.25-4-9.22-6.28a3.11,3.11,0,0,1-.6-2.63,39.64,39.64,0,0,1,13.61-24.86,24.75,24.75,0,0,1,13.53-6.12c12.27-1.63,22.53,2.32,31.31,10,.37.39.74.85,1.19,1.32,8-3.88,16.8-4.65,25.28-6.66a3.94,3.94,0,0,0,2.23-1.79c.86-1.51,1.67-3.06,2.49-4.62l1.7.92c-.88,1.63-1.76,3.31-2.7,5C205.51,183.64,209.13,182.83,212.77,182Z"/><path class="cls-3" d="M194.11,226.26l-.24,2c-.23.78-.52,1.63-.67,2.41a32.89,32.89,0,0,1-14.73,21.91,35.08,35.08,0,0,1-26.27,5.05l.5-2.65a28.41,28.41,0,0,0,5,.55c14.43.31,26.7-7.82,30.86-20.53.52-1.55,1-3.1,1.34-4.64C190.43,228.06,190.85,225.76,194.11,226.26Z"/><path class="cls-3" d="M187,220.25l.28,2-.68.1c.52.93.89,1.78,1.19,2.4-.6.54-1.34.93-1.41,1.4-.82,7.28-5,12.85-10,18.2-4.83,5.19-10.85,7.51-18.22,7.59h-.85l0-2.78a21.72,21.72,0,0,0,12.14-3.18c8.85-5.65,12.64-13.94,14.13-23.39a2.84,2.84,0,0,1,1.48-1.86A12,12,0,0,1,187,220.25Z"/><path class="cls-3" d="M162.71,207.83c.15,4.88.52,9.83-1.12,14.71a8.2,8.2,0,0,1-5.13,5.27c-8.32,3.18-16.58,6.43-24.91,9.6-.37.16-.74.39-1.19.62l-2.44.12c-1-1.43-.17-2.24,1.25-2.83,3.35-1.39,6.62-2.86,9.89-4.18,5.14-2,10.19-4.1,15.4-6a5.57,5.57,0,0,0,4.09-5.19,1.66,1.66,0,0,0-.9-1.32c-5.13-2.25-10.41-3.25-16.13-1.63-4.17,1.24-8.48,1.94-12.72,2.87-.26.07-.58.11-.85.16l-.46-1.75c5.59-1.46,11.26-3,16.78-4.61a14.86,14.86,0,0,1,10.19.55c1.41.62,3,1.08,4.61,1.7.15-2.09.29-3.8.29-5.58,0-.54-.29-1.39-.67-1.47-3-1-6-1.86-9.51-2.86v4.49c-.23,0-.37.08-.6.08a11.85,11.85,0,0,1-.89-2,26.12,26.12,0,0,1-.3-3c-10.78.7-20,5.81-30.19,7.82l-.73-2.06h0c7.3-2.58,14.46-5,21.55-7.61a20.61,20.61,0,0,1,11.83-.85c3.79.93,7.58,2.17,11.37,3.41A2.66,2.66,0,0,1,162.71,207.83Z"/><path class="cls-3" d="M157.34,249.11l0,2.78A50.43,50.43,0,0,1,139.73,249a32.49,32.49,0,0,0,13,6l-.5,2.65c-10.13-2-19.2-8.33-23.55-18a3.33,3.33,0,0,0-.59-1.32l-.14-.19,2.44-.12a8.5,8.5,0,0,1,.82,1.16c4.84,6,11.6,8.53,19.41,9.45A57.6,57.6,0,0,0,157.34,249.11Z"/></g></g><path class="cls-3" d="M247.56,294.69a10,10,0,0,1,1,1.19c6.55,10.86,11.37,22.28,13.24,34.62a9.43,9.43,0,0,1-.5,2.92,10.39,10.39,0,0,1-1.6-2.56c-3.11-11.77-6.69-23.4-12.23-34.46A9.63,9.63,0,0,1,247,295l.57-.27"/><path class="cls-3" d="M266.49,309.21c-2,.38-3.06-.53-3.17-1.6-.44-4.15-.61-8.33-.85-12.49,0-.11.31-.25.72-.55,1.65,4.79-.52,10.14,3.3,14.65"/><path class="cls-3" d="M232.55,271.52l8.86-12.11c1,2.62-4.24,10.4-8.86,12.11"/><path class="cls-3" d="M252.77,325.91a8.13,8.13,0,0,1-1.16-1.49c-1-2.6-2-5.22-2.86-7.85-.13-.39.22-.91.35-1.37.35.17.93.28,1,.53,1.07,2.93,2.08,5.88,3.06,8.84.08.25-.17.58-.41,1.33"/><path class="cls-3" d="M279,265.69,286.3,271c-2.29.64-5.28-2.15-6.61-6l-.7.66"/><path class="cls-3" d="M286.63,265l2.66,2.55-.77.71-2.79-2.43.9-.83"/><path class="cls-3" d="M248,162.29l-7.71,2.87c.4-2.31,4.52-4,7.71-2.87"/><path class="cls-3" d="M265.71,164.36a5.22,5.22,0,0,1,7.38-1.59l-7.38,1.59"/><path class="cls-3" d="M225.93,167.84l-7.1,1.46c1.4-2.27,4-2.89,7.1-1.46"/><path class="cls-3" d="M295.59,164.28l-6.6-.75c.71-1.59,2.36-1.69,3.88-2.1,2.48-.66,1.66,1.84,2.9,2.33l-.17.51"/><path class="cls-9" d="M53.35,352.39c-1.67.09-3.88.09-5.4.09C43.85,333.38,39.29,313,34.2,296c-4.94,18.06-10.79,40.21-14.82,56.65H14.06C10.72,330.06,6.54,307.91.15,286.81l5-2.09A427.16,427.16,0,0,1,17.1,340.51c4.1-17.49,9.5-36.88,14.75-55.22,1.22,0,3.12-.09,4.79-.19,5.32,18.15,9.42,34.6,13.91,54.65,3.8-20.15,8-39.06,12.92-55.32,1,.48,3.57,1.9,4.94,2.57C62.32,304.68,57.38,330.15,53.35,352.39Z"/><path class="cls-9" d="M76.46,353.44c-.15-19.39,1-43.34,2.05-58.07a30.62,30.62,0,0,0-3.72,1.52,12.64,12.64,0,0,1,.46-5A4.12,4.12,0,0,1,77.52,289c12.69-4.28,29.64-4.85,39.37-4.66.08,1.62.08,4.85,0,6.56-11.1-.19-22.57.47-33.06,2.95-.38,7-.84,14.64-1.29,22.05a151.24,151.24,0,0,1,32.23-2.66c0,2.28.08,4.94.08,6.46-11.1-.19-22.19.38-32.61,2.95-.38,7.41-.61,15-.61,22.62a173.69,173.69,0,0,1,36.25-2.19c.08,2.19.08,4.66,0,6.37C102.83,349.16,89.76,349.16,76.46,353.44Z"/><path class="cls-9" d="M439.93,345a19.2,19.2,0,0,1-10.87,7.5,27.56,27.56,0,0,1-16.42-.67,16.08,16.08,0,0,1-7.6-5.51,30.46,30.46,0,0,1-4.79-10.07,4.18,4.18,0,0,1,.76-4.08,10.38,10.38,0,0,1,3.72-2.47,25.8,25.8,0,0,0,3.65,11.21,11.7,11.7,0,0,0,6.84,4.94,27.4,27.4,0,0,0,11.48.67,14.66,14.66,0,0,0,9.5-6.55,11.6,11.6,0,0,0,1.6-8.65,8.75,8.75,0,0,0-4.33-6,64.57,64.57,0,0,0-13.68-5.79c-4.94-1.52-9.8-3.61-13.83-7.88a14.94,14.94,0,0,1-3.72-10.93,18.35,18.35,0,0,1,4.33-10.92c4.1-4.94,10.64-6.65,17.48-6.08a21.84,21.84,0,0,1,11.86,4.94,19,19,0,0,1,6.69,11.3,3.59,3.59,0,0,1-.91,3.23,5.9,5.9,0,0,1-4.18,1.71c-.38-4.18-1.52-8.36-4.33-10.83a18.93,18.93,0,0,0-9-3.8,16.61,16.61,0,0,0-12.54,2.85,9.68,9.68,0,0,0-4,7.22,9.93,9.93,0,0,0,3.34,7.89c2.74,2.47,8.51,4.56,12.16,5.89A104.51,104.51,0,0,1,436,319.38c4.1,2.09,6.92,6.46,7.37,12.06A20.59,20.59,0,0,1,439.93,345Z"/><path class="cls-9" d="M486.67,349.5c-3.65,2.85-7.83,3.61-12.24,3.8-6.08.19-12.16-1.42-16.49-6.37s-5.32-11.59-5.78-18.71c-.76-12.07.15-25.94,1.67-38.29a5.14,5.14,0,0,1,2.43-4.08,8.34,8.34,0,0,1,3.8-1.14c-1.82,13.3-3.19,28.41-2.51,42.56.3,5.51,1.22,12,4.71,15.67,3.12,3.33,8.13,4.37,12,4.28,4.1-.19,8.89-1.52,11.78-5.51,2.43-3.42,3.34-8.17,3.57-13.11.68-13.87-.68-29.83-2.81-43.8a5.76,5.76,0,0,1,4.56,1.42,6.9,6.9,0,0,1,2,4.56c1.6,14.82,3.19,33,.23,47.5A19.59,19.59,0,0,1,486.67,349.5Z"/><path class="cls-9" d="M545.27,353.11c-8.21-14.63-13.68-23.46-20.14-32.3a72.58,72.58,0,0,1-14.36-.19c-.38,10.26-.76,21.57-.76,32.68a10.22,10.22,0,0,1-3.8-1.9,4,4,0,0,1-1.37-3.33c-.15-12.35,1.14-35.91,2.2-52.06a23.14,23.14,0,0,0-3.8,2,22.76,22.76,0,0,1,.08-4.56,4.29,4.29,0,0,1,2.05-3.33c9-5.13,20.6-8.27,30.78-4.84a13.42,13.42,0,0,1,8.51,7.69A21,21,0,0,1,546,305.42c-.91,4.85-3.42,8.83-7,11a32.47,32.47,0,0,1-7.9,3.33c5.78,8.46,11.17,16.63,16.11,25.17a4.8,4.8,0,0,1,.38,4.28A12.23,12.23,0,0,1,545.27,353.11Zm-11.1-62c-7.22-1.81-15.12-.48-21.66,2.38-.38,5.42-1.06,15.77-1.37,21a57.57,57.57,0,0,0,20.45-1.33c3.27-1,6.31-2.47,8.21-6.27a13.1,13.1,0,0,0,.53-9.31C539.26,294.21,536.83,291.74,534.17,291.07Z"/><path class="cls-9" d="M555.45,353.39c-.15-19.38,1-43.32,2.05-58a30.85,30.85,0,0,0-3.72,1.52,12.66,12.66,0,0,1,.46-5,4.12,4.12,0,0,1,2.28-2.85c12.69-4.28,29.64-4.85,39.37-4.66.08,1.62.08,4.84,0,6.55-11.1-.19-22.57.48-33.06,2.95-.38,7-.84,14.63-1.29,22a151.36,151.36,0,0,1,32.23-2.66c0,2.28.08,4.94.08,6.46-11.1-.19-22.19.38-32.61,2.95-.38,7.41-.61,15-.61,22.61A173.76,173.76,0,0,1,596.87,343c.08,2.18.08,4.65,0,6.36C581.82,349.12,568.75,349.12,555.45,353.39Z"/><path class="cls-10" d="M220.81,374.27a98.32,98.32,0,0,0,78.32.11"/></g></g></svg>